<?xml version="1.0" encoding="UTF-8"?><svg id="Layer_2" xmlns="http://www.w3.org/2000/svg" viewBox="0 0 14.74 16.38"><defs><style>.cls-1{fill:#20a155;}</style></defs><g id="Layer_1-2"><path class="cls-1" d="m14.69,2.77c-.1-.77-.64-1.27-1.38-1.37-.58-.08-1.16-.13-1.74-.23-1.2-.22-2.38-.56-3.52-1.02-.36-.14-.75-.21-1.13-.09-.24.07-.47.18-.7.26-.7.27-1.42.48-2.15.65-.75.18-1.5.32-2.26.39-.35.04-.71.05-1.02.26C.33,1.93,0,2.35,0,2.93c0,1.33,0,2.67,0,4,0,.62.06,1.23.16,1.84.14.8.39,1.57.75,2.3.64,1.3,1.57,2.35,2.69,3.25.92.74,1.94,1.33,3,1.86.45.23.9.27,1.37.07.37-.15.71-.35,1.06-.54,1.12-.63,2.17-1.35,3.08-2.27.53-.54,1-1.13,1.39-1.78.53-.91.87-1.89,1.05-2.94.11-.63.16-1.26.18-1.9.01-.58,0-1.16,0-1.89-.03-.62.06-1.4-.04-2.16Zm-3.44,3.63c-.68.7-1.41,1.36-2.09,2.05-.59.6-1.22,1.14-1.79,1.76-.29.31-.9.34-1.22,0-.6-.6-1.21-1.19-1.82-1.78-.42-.41-.38-.97.1-1.31.31-.22.7-.15.97.08.28.25.54.53.81.8.14.13.29.26.43.4.07.07.12.07.19,0,.43-.4.84-.81,1.26-1.22.67-.66,1.37-1.31,2.04-1.98.32-.32,1.03-.27,1.28.23.06.12.07.25.06.38.03.23-.06.42-.22.59Z"/></g></svg>